HIERARCHY
ROOT root
{
	OFFSET	0	13.1	24.9
	CHANNELS 6  Xposition Yposition Zposition Xrotation Yrotation Zrotation
	JOINT spine_1
	{
		OFFSET	0	9.99999	0
		CHANNELS 3  Xrotation Yrotation Zrotation
		JOINT spine_2
		{
			OFFSET	0	112	-10
			CHANNELS 3  Xrotation Yrotation Zrotation
			JOINT spine_3
			{
				OFFSET	0	206.5	19.3
				CHANNELS 3  Xrotation Yrotation Zrotation
				JOINT spine_4
				{
					OFFSET	0	110.4	14.6
					CHANNELS 3  Xrotation Yrotation Zrotation
					JOINT neck_1
					{
						OFFSET	0	71.8	-50.3
						CHANNELS 3  Xrotation Yrotation Zrotation
						JOINT neck_2
						{
							OFFSET	0	86.2	-25.8
							CHANNELS 3  Xrotation Yrotation Zrotation
							JOINT head_ee
							{
								OFFSET	0	179.8	-8.7
								CHANNELS 3  Xrotation Yrotation Zrotation
								End Site
								{
									OFFSET	1	0	0
								}
							}
						}
					}
					JOINT left_clavicle
					{
						OFFSET	-43.2	22.4	-70.8
						CHANNELS 3  Xrotation Yrotation Zrotation
						JOINT left_shoulder
						{
							OFFSET	-93.9	-5.79999	48.7
							CHANNELS 3  Xrotation Yrotation Zrotation
							JOINT left_elbow
							{
								OFFSET	-291.4	-30.8	15.2
								CHANNELS 3  Xrotation Yrotation Zrotation
								JOINT left_lowarm_twist
								{
									OFFSET	-110.7	-3.89999	13.6
									CHANNELS 3  Xrotation Yrotation Zrotation
									JOINT left_hand
									{
										OFFSET	-110.7	-3.89999	13.6
										CHANNELS 3  Xrotation Yrotation Zrotation
										JOINT left_ee
										{
											OFFSET	-80.8	-5.10001	12.1
											CHANNELS 3  Xrotation Yrotation Zrotation
											End Site
											{
												OFFSET	1	0	0
											}
										}
									}
								}
							}
						}
					}
					JOINT right_clavicle
					{
						OFFSET	43.2	22.4	-70.8
						CHANNELS 3  Xrotation Yrotation Zrotation
						JOINT right_shoulder
						{
							OFFSET	93.9	-5.79999	48.7
							CHANNELS 3  Xrotation Yrotation Zrotation
							JOINT right_elbow
							{
								OFFSET	291.4	-30.8	15.2
								CHANNELS 3  Xrotation Yrotation Zrotation
								JOINT right_lowarm_twist
								{
									OFFSET	110.7	-3.89999	13.6
									CHANNELS 3  Xrotation Yrotation Zrotation
									JOINT right_hand
									{
										OFFSET	110.7	-3.89999	13.6
										CHANNELS 3  Xrotation Yrotation Zrotation
										JOINT right_ee
										{
											OFFSET	80.8	-5.10001	12.1
											CHANNELS 3  Xrotation Yrotation Zrotation
											End Site
											{
												OFFSET	1	0	0
											}
										}
									}
								}
							}
						}
					}
				}
			}
		}
	}
	JOINT left_hip
	{
		OFFSET	-82.8	-127.5	0.300001
		CHANNELS 3  Xrotation Yrotation Zrotation
		JOINT left_knee
		{
			OFFSET	-28.2	-396.7	2.2
			CHANNELS 3  Xrotation Yrotation Zrotation
			JOINT left_ankle
			{
				OFFSET	-11.7	-411.3	35.4
				CHANNELS 3  Xrotation Yrotation Zrotation
				JOINT left_toes
				{
					OFFSET	0	-60	-88.6
					CHANNELS 3  Xrotation Yrotation Zrotation
					JOINT left_foot_ee
					{
						OFFSET	-22.5	-16.5	-42.2
						CHANNELS 3  Xrotation Yrotation Zrotation
						End Site
						{
							OFFSET	1	0	0
						}
					}
				}
			}
		}
	}
	JOINT right_hip
	{
		OFFSET	82.8	-127.5	0.300001
		CHANNELS 3  Xrotation Yrotation Zrotation
		JOINT right_knee
		{
			OFFSET	28.2	-396.7	2.2
			CHANNELS 3  Xrotation Yrotation Zrotation
			JOINT right_ankle
			{
				OFFSET	11.7	-411.3	35.4
				CHANNELS 3  Xrotation Yrotation Zrotation
				JOINT right_toes
				{
					OFFSET	0	-60	-88.6
					CHANNELS 3  Xrotation Yrotation Zrotation
					JOINT right_foot_ee
					{
						OFFSET	22.5	-16.5	-42.2
						CHANNELS 3  Xrotation Yrotation Zrotation
						End Site
						{
							OFFSET	1	0	0
						}
					}
				}
			}
		}
	}
}
MOTION
Frames: 8
Frame Time: 0.02
2800.94 716.97 -1473.77 1.13771213371 81.4241621379 2.00331368255 0.799827 -0.682135 -3.19775 0.805389 -0.477381 -3.23462 0.834316 0.165508 -3.26544 0.81961 -0.352005 -3.25064 -18.2815 21.4797 7.77094 -20.1181 37.2429 16.3938 -0.0 0.0 -0.0 5.53781 9.7794 10.7889 -4.015 -34.4401 60.1925 3.62952 -60.9021 2.13424 -25.1748 -1.52949 2.80599 0.127665 11.1745 5.43239 -0.0 0.0 -0.0 1.52261 1.67474 -2.77718 -30.0658 38.4763 -59.4078 0.498482 13.8709 -0.0606364 -19.6269 1.08819 -2.24915 2.40524 7.64356 -13.1055 0.0 0.0 0.0 -5.09584 14.514 -0.675614 -31.1941 -0.00351851 4.7285 41.5244 12.2157 -5.02919 -31.8703 0.0 0.0 -0.0 0.0 -0.0 36.724 14.6598 -6.11576 -7.55088 -0.236452 -1.13388 -3.05308 19.7084 -0.510597 -34.4563 0.0 0.0 0.0 0.0 0.0 
2708.45033554 717.731 -1490.35548273 11.6530524305 84.3248942842 -9.38139560238 0.92864 -0.443176 -2.98262 0.933553 -0.252574 -3.00475 0.948129 0.335243 -2.99666 0.935626 -0.142009 -3.01199 -14.1396 21.7419 5.56638 -15.4097 38.2353 12.8071 -0.0 0.0 -0.0 5.44879 5.68551 10.6299 -13.2099 -31.5326 61.1743 2.78021 -54.0069 1.41701 -22.3619 -1.29897 2.52895 -0.00593155 13.1507 5.37113 -0.0 0.0 -0.0 2.55718 2.30606 -4.75116 -29.7368 41.0417 -56.6807 0.517872 14.3885 -0.06537 -20.8979 1.18448 -2.38042 2.61389 6.5585 -15.0268 0.0 0.0 0.0 -8.94333 12.7928 -1.24567 -35.3278 -0.196587 5.33323 35.7182 7.06295 -4.46931 -37.2438 0.0 0.0 -0.0 0.0 -0.0 33.8728 13.7317 -6.04597 -14.6953 -0.3211 -2.22615 -6.30003 17.9136 -1.04392 -32.5049 0.0 0.0 0.0 0.0 0.0 
2708.75103347 717.731 -1491.95270387 9.9339070959 83.3512789867 -7.6523241638 0.92864 -0.443176 -2.98262 0.933553 -0.252574 -3.00475 0.948129 0.335243 -2.99666 0.935626 -0.142009 -3.01199 -14.1396 21.7419 5.56638 -15.4097 38.2353 12.8071 -0.0 0.0 -0.0 5.44879 5.68551 10.6299 -13.2099 -31.5326 61.1743 2.78021 -54.0069 1.41701 -22.3619 -1.29897 2.52895 -0.00593155 13.1507 5.37113 -0.0 0.0 -0.0 2.55718 2.30606 -4.75116 -29.7368 41.0417 -56.6807 0.517872 14.3885 -0.06537 -20.8979 1.18448 -2.38042 2.61389 6.5585 -15.0268 0.0 0.0 0.0 -8.94333 12.7928 -1.24567 -35.3278 -0.196587 5.33323 35.7182 7.06295 -4.46931 -37.2438 0.0 0.0 -0.0 0.0 -0.0 33.8728 13.7317 -6.04597 -14.6953 -0.3211 -2.22615 -6.30003 17.9136 -1.04392 -32.5049 0.0 0.0 0.0 0.0 0.0 
2709.00822295 717.731 -1493.21131265 8.89557264473 82.5784876318 -6.60613729855 0.92864 -0.443176 -2.98262 0.933553 -0.252574 -3.00475 0.948129 0.335243 -2.99666 0.935626 -0.142009 -3.01199 -14.1396 21.7419 5.56638 -15.4097 38.2353 12.8071 -0.0 0.0 -0.0 5.44879 5.68551 10.6299 -13.2099 -31.5326 61.1743 2.78021 -54.0069 1.41701 -22.3619 -1.29897 2.52895 -0.00593155 13.1507 5.37113 -0.0 0.0 -0.0 2.55718 2.30606 -4.75116 -29.7368 41.0417 -56.6807 0.517872 14.3885 -0.06537 -20.8979 1.18448 -2.38042 2.61389 6.5585 -15.0268 0.0 0.0 0.0 -8.94333 12.7928 -1.24567 -35.3278 -0.196587 5.33323 35.7182 7.06295 -4.46931 -37.2438 0.0 0.0 -0.0 0.0 -0.0 33.8728 13.7317 -6.04597 -14.6953 -0.3211 -2.22615 -6.30003 17.9136 -1.04392 -32.5049 0.0 0.0 0.0 0.0 0.0 
2709.36703114 717.731 -1494.83674259 7.83460738714 81.5742512862 -5.53498676375 0.92864 -0.443176 -2.98262 0.933553 -0.252574 -3.00475 0.948129 0.335243 -2.99666 0.935626 -0.142009 -3.01199 -14.1396 21.7419 5.56638 -15.4097 38.2353 12.8071 -0.0 0.0 -0.0 5.44879 5.68551 10.6299 -13.2099 -31.5326 61.1743 2.78021 -54.0069 1.41701 -22.3619 -1.29897 2.52895 -0.00593155 13.1507 5.37113 -0.0 0.0 -0.0 2.55718 2.30606 -4.75116 -29.7368 41.0417 -56.6807 0.517872 14.3885 -0.06537 -20.8979 1.18448 -2.38042 2.61389 6.5585 -15.0268 0.0 0.0 0.0 -8.94333 12.7928 -1.24567 -35.3278 -0.196587 5.33323 35.7182 7.06295 -4.46931 -37.2438 0.0 0.0 -0.0 0.0 -0.0 33.8728 13.7317 -6.04597 -14.6953 -0.3211 -2.22615 -6.30003 17.9136 -1.04392 -32.5049 0.0 0.0 0.0 0.0 0.0 
2682.82263064 717.386 -1498.10794518 14.8430021271 81.6944419912 -12.4836640648 0.938136 -0.515762 -2.79909 0.942432 -0.336676 -2.82621 0.960304 0.217352 -2.83787 0.949142 -0.233379 -2.8366 -12.0233 21.7778 4.72808 -12.9329 38.4072 11.176 -0.0 0.0 -0.0 5.21957 6.35821 10.213 -15.3571 -34.1408 61.8195 2.43894 -50.3779 1.14724 -23.1134 -1.35921 2.60405 0.2151 12.8881 6.66486 -0.0 0.0 -0.0 2.98494 4.23983 -5.45237 -31.4404 41.1411 -55.9157 0.580898 16.0538 -0.081919 -20.7801 1.17543 -2.36834 2.40103 5.55048 -13.9758 0.0 0.0 0.0 -8.74338 13.106 -2.09832 -38.1136 -0.351136 5.73238 37.4355 8.47096 -4.63591 -37.1239 0.0 0.0 -0.0 0.0 -0.0 32.6686 13.5757 -5.67807 -16.1066 -0.32168 -2.44268 -6.93631 21.9172 -1.19539 -32.4142 0.0 0.0 0.0 0.0 0.0 
2635.23428839 728.039 -1506.43841444 21.7082349025 81.1753921124 -20.1654768409 0.989011 -0.240095 -2.30606 0.991965 -0.0929079 -2.31666 0.996382 0.356454 -2.29097 0.989058 -0.00973419 -2.3185 -10.3632 21.6643 3.69561 -10.9929 38.5191 9.50356 -0.0 0.0 -0.0 4.68952 6.7279 9.24994 -19.5689 -33.6248 62.7166 1.89706 -43.2163 0.751468 -22.6559 -1.32242 2.55843 0.30979 13.9417 7.67156 -0.0 0.0 -0.0 3.64871 5.38743 -6.70465 -31.0403 42.0008 -55.1908 0.606088 16.7119 -0.0890241 -21.4016 1.22343 -2.43184 2.45897 5.3624 -14.4588 0.0 0.0 0.0 -7.85286 12.6611 -2.59078 -41.8641 -0.589602 6.25725 35.6236 7.20168 -4.46053 -38.774 0.0 0.0 -0.0 0.0 -0.0 29.6992 12.6593 -6.23394 -17.8594 -0.314976 -2.7115 -8.4785 21.619 -1.46074 -31.4957 0.0 0.0 0.0 0.0 0.0 
2635.50239558 728.039 -1507.77010601 20.6614352218 80.7456897814 -19.1055209986 0.989011 -0.240095 -2.30606 0.991965 -0.0929079 -2.31666 0.996382 0.356454 -2.29097 0.989058 -0.00973419 -2.3185 -10.3632 21.6643 3.69561 -10.9929 38.5191 9.50356 -0.0 0.0 -0.0 4.68952 6.7279 9.24994 -19.5689 -33.6248 62.7166 1.89706 -43.2163 0.751468 -22.6559 -1.32242 2.55843 0.30979 13.9417 7.67156 -0.0 0.0 -0.0 3.64871 5.38743 -6.70465 -31.0403 42.0008 -55.1908 0.606088 16.7119 -0.0890241 -21.4016 1.22343 -2.43184 2.45897 5.3624 -14.4588 0.0 0.0 0.0 -7.85286 12.6611 -2.59078 -41.8641 -0.589602 6.25725 35.6236 7.20168 -4.46053 -38.774 0.0 0.0 -0.0 0.0 -0.0 29.6992 12.6593 -6.23394 -17.8594 -0.314976 -2.7115 -8.4785 21.619 -1.46074 -31.4957 0.0 0.0 0.0 0.0 0.0 
